<svg
	 xmlns="http://www.w3.org/2000/svg" xmlns:xlink="http://www.w3.org/1999/xlink" x="0px" y="0px" viewBox="0 0 164 164"
		<g>
			<line fill="none" stroke="#4D4D4D" stroke-miterlimit="10" x1="124.3" y1="85.7" x2="98.8" y2="107.9"/>
			<line fill="none" stroke="#4D4D4D" stroke-miterlimit="10" x1="60.9" y1="51.6" x2="98.8" y2="107.9"/>
			<line fill="none" stroke="#4D4D4D" stroke-miterlimit="10" x1="62" y1="51.5" x2="124.3" y2="85.7"/>
			<line fill="none" stroke="#4D4D4D" stroke-miterlimit="10" x1="62" y1="51.5" x2="70.5" y2="126.2"/>
			<line fill="none" stroke="#4D4D4D" stroke-miterlimit="10" x1="43.8" y1="100.3" x2="70.5" y2="126.2"/>
			<line fill="none" stroke="#4D4D4D" stroke-miterlimit="10" x1="110" y1="51.5" x2="124.3" y2="85.7"/>
			<line fill="none" stroke="#4D4D4D" stroke-miterlimit="10" x1="60.9" y1="51.6" x2="43.8" y2="100.3"/>
			<line fill="none" stroke="#4D4D4D" stroke-miterlimit="10" x1="62" y1="51.5" x2="110" y2="51.5"/>
			<line fill="none" stroke="#4D4D4D" stroke-miterlimit="10" x1="62" y1="51.5" x2="19.1" y2="42.8"/>
			<line fill="none" stroke="#4D4D4D" stroke-miterlimit="10" x1="62" y1="51.5" x2="78.2" y2="11.4"/>
		</g>

			<ellipse id="_x3C_circle6_x3E_" stroke="#4D4D4D" stroke-width="3" stroke-miterlimit="10" cx="70.5" cy="126.2" rx="7.7" ry="7.7"/>

			<ellipse id="_x3C_circle5_x3E_" fill="#CCCCCC" stroke="#E6E6E6" stroke-width="3" stroke-miterlimit="10" cx="43.8" cy="100.3" rx="14.7" ry="14.6"/>

			<ellipse id="_x3C_circle4_x3E_" fill="#808080" stroke="#4D4D4D" stroke-width="3" stroke-miterlimit="10" cx="98.8" cy="107.9" rx="7.7" ry="7.7"/>

			<ellipse id="_x3C_circle3_x3E_" fill="#CCCCCC" stroke="#E6E6E6" stroke-width="3" stroke-miterlimit="10" cx="124.3" cy="85.7" rx="10.5" ry="10.5"/>

			<ellipse id="_x3C_circle2_x3E_" fill="#B3B3B3" stroke="#4D4D4D" stroke-width="3" stroke-miterlimit="10" cx="109.9" cy="51.6" rx="11.1" ry="11.1"/>

			<ellipse id="_x3C_circle1_x3E_" fill="#CCCCCC" stroke="#E6E6E6" stroke-width="3" stroke-miterlimit="10" cx="60.9" cy="51.6" rx="21.1" ry="20.9"/>

			<ellipse id="_x3C_circle4_x3E__1_" fill="#808080" stroke="#4D4D4D" stroke-miterlimit="10" cx="19.1" cy="42.8" rx="7.7" ry="7.7"/>

			<ellipse id="_x3C_circle4_x3E__2_" fill="#808080" stroke="#4D4D4D" stroke-miterlimit="10" cx="78.2" cy="11.4" rx="7.7" ry="7.7"/>
	</g>
</svg>
