<svg id="Layer_1" data-name="Layer 1" xmlns="http://www.w3.org/2000/svg" width="65" height="64" viewBox="0 0 65 64"><defs><style>.cls-1{fill:#054f8a;}.cls-2{fill:#f2f2f2;}</style></defs><title>3d-logo</title><rect class="cls-1" width="65" height="64"/><path class="cls-2" d="M12.5378,30.0811l9.36-9.18h-10.44a7.8087,7.8087,0,0,0-2.34.2246,1.6271,1.6271,0,0,0-1.125,1.7549q0,.451.09,1.3056t.09,1.3047q0,2.3409-1.5752,2.34-1.5293,0-1.5293-1.9346,0-.5406.0674-1.6426t.0674-1.6426V19.3262q0-1.2144.4482-1.5078a5.1277,5.1277,0,0,1,2.24-.292H18.9167q.8964,0,3.0468-.09,1.0767-.0453,2.51-.0449,2.6441,0,2.6445,1.6133a3.0249,3.0249,0,0,1-1.125,2.1074l-8.28,7.9336h1.3056a8.3972,8.3972,0,0,1,8.7295,8.7305A9.8179,9.8179,0,0,1,24.26,45.5615a13.2383,13.2383,0,0,1-8.9775,3.0147A13.938,13.938,0,0,1,6.8678,46.124a7.346,7.346,0,0,1-3.375-6.1426,5.4171,5.4171,0,0,1,1.2149-3.5781,3.7692,3.7692,0,0,1,3.0146-1.4619,2.6823,2.6823,0,0,1,1.9131.6973,2.3868,2.3868,0,0,1,.7422,1.8222q0,2.2515-2.6553,2.25H7.2282v.3155A4.6014,4.6014,0,0,0,9.68,43.8516a10.246,10.246,0,0,0,5.7823,1.6191,8.8249,8.8249,0,0,0,6.12-2.1367,7.0129,7.0129,0,0,0,2.3847-5.4678q0-5.8491-6.66-5.85a17.413,17.413,0,0,0-3.6445.4043,3.5,3.5,0,0,1-.7647.09c-.7207,0-1.08-.3886-1.08-1.17A1.9738,1.9738,0,0,1,12.5378,30.0811Z" transform="translate(0.3333)"/><path class="cls-2" d="M36.7028,23.5566q0-3.375-2.2949-3.375a5.7765,5.7765,0,0,0-.9453.09,8.1363,8.1363,0,0,1-1.2149.1348,1.253,1.253,0,0,1-1.3945-1.44q0-1.5747,2.0244-1.5742a4.8755,4.8755,0,0,1,.585.0449l2.3847.3145a21.81,21.81,0,0,0,2.8809.1806,23.6952,23.6952,0,0,0,2.52-.1357l2.9248-.3145q.8541-.0892,2.25-.09a17.4929,17.4929,0,0,1,6.84,1.17,11.6608,11.6608,0,0,1,5.6933,5.31,17.83,17.83,0,0,1,2.0918,8.7754,18.41,18.41,0,0,1-1.665,7.9424,11.3614,11.3614,0,0,1-4.5449,5.1972,16.3246,16.3246,0,0,1-8.37,2.0254q-.99,0-2.0244-.0908l-3.1054-.27q-1.5747-.1349-3.2852-.1348a17.8061,17.8061,0,0,0-2.43.1348l-2.16.3154a1.8512,1.8512,0,0,0-.3145.0449h-.36q-1.9351,0-1.9346-1.5752a1.4809,1.4809,0,0,1,.4043-1.0576,1.3116,1.3116,0,0,1,.99-.4277,6.801,6.801,0,0,1,1.2149.1347,3.6523,3.6523,0,0,0,.9453.0909q2.2955,0,2.2949-3.375Zm3.78-.46V42.0605a2.3328,2.3328,0,0,0,2.0244,2.5118,21.9741,21.9741,0,0,0,3.78.1787q5.3994,0,7.83-2.9141a13.9184,13.9184,0,0,0,2.9248-9.2353,15.1207,15.1207,0,0,0-1.7773-7.6,8.1226,8.1226,0,0,0-4.8828-4.0127,17.0424,17.0424,0,0,0-4.77-.583A13.1656,13.1656,0,0,0,41.27,20.81Q40.4821,21.2139,40.4831,23.0967Z" transform="translate(0.3333)"/></svg>